<svg id="Layer_1" data-name="Layer 1" xmlns="http://www.w3.org/2000/svg" viewBox="0 0 500 500" width="500" height="500" class="illustration"><path d="M327.17,102.78c-14.11-13.41-31.93-22.56-50.27-28.67l-.83-.23a98.13,98.13,0,0,0-50.75,0l-.83.23c-18.34,6.11-36.17,15.26-50.27,28.67-42,39.92-35.16,112.37,5.73,150.59,11.46,10.73,16.5,24.57,20,39.83,1.06,4.6,7.14,52.54,5,52.54h91.43c-2.12,0,4-47.94,5-52.54,3.51-15.26,8.55-29.1,20-39.83C362.33,215.15,369.15,142.7,327.17,102.78Z" fill="#f9bb0d"></path><path d="M234.25,293.2c-3.51-15.26-8.54-29.1-20-39.83-40.88-38.22-47.7-110.67-5.72-150.59,14.1-13.41,31.92-22.56,50.27-28.67l.82-.23c2.72-.73,5.47-1.29,8.23-1.78a98,98,0,0,0-42.52,1.78l-.83.23c-18.34,6.11-36.17,15.26-50.27,28.67-42,39.92-35.16,112.37,5.73,150.59,11.46,10.73,16.5,24.57,20,39.83,1.06,4.6,7.14,52.54,5,52.54h34.3C241.4,345.74,235.31,297.8,234.25,293.2Z" fill="#ffd44d"></path><path d="M250.69,345.74V233.93l19.69-11.34a8.41,8.41,0,0,0-2.06-15.41l-35.81-9.45a6.7,6.7,0,0,1-1-12.59l19.22-8.65v-38" fill="none" stroke="#fefefe" stroke-linecap="round" stroke-linejoin="round" stroke-width="2"></path><path d="M305.5,345.92c0,5.09-2.75,9.23-6.15,9.23H198.83c-3.4,0-6.16-4.14-6.16-9.23h0c0-5.1,2.76-9.24,6.16-9.24H299.35c3.4,0,6.15,4.14,6.15,9.24Z" fill="#24285b"></path><path d="M305.5,364.38c0,5.1-2.75,9.23-6.15,9.23H198.83c-3.4,0-6.16-4.13-6.16-9.23h0c0-5.1,2.76-9.23,6.16-9.23H299.35c3.4,0,6.15,4.13,6.15,9.23Z" fill="#24285b"></path><path d="M305.5,383.36c0,5.38-2.75,9.74-6.15,9.74H198.83c-3.4,0-6.16-4.36-6.16-9.74h0c0-5.39,2.76-9.75,6.16-9.75H299.35c3.4,0,6.15,4.36,6.15,9.75Z" fill="#24285b"></path><path d="M249.09,429A35.9,35.9,0,0,0,285,393.1h-71.8A35.9,35.9,0,0,0,249.09,429Z" fill="#24285b"></path></svg>