<svg xmlns="http://www.w3.org/2000/svg" viewBox="0 0 100 100" width="500" height="500" class="illustration"><defs><style>.cls-1{fill:#f0457d;}.cls-2{fill:#0099f5;}.cls-3{fill:#ffd44d;}.cls-4{fill:#ff9515;}.cls-5{fill:none;stroke:#231f20;stroke-linejoin:round;stroke-width:1.5px;}</style></defs><g id="Layer_1" data-name="Layer 1"><path class="cls-1" d="M43.48,62.11H66.31a0,0,0,0,1,0,0V67a7.24,7.24,0,0,1-7.24,7.24H50.73A7.24,7.24,0,0,1,43.48,67V62.11A0,0,0,0,1,43.48,62.11Z"></path><path class="cls-2" d="M55.73,79.35h-1.6a3.49,3.49,0,0,1-3.49-3.49v-1.6h8.59v1.6h0A3.5,3.5,0,0,1,55.73,79.35Z"></path><path class="cls-3" d="M66.31,56.12h0A20.82,20.82,0,1,0,34.62,44.47a20,20,0,0,0,1.67,4.12C36.94,49.32,45.06,57.85,66.31,56.12Z"></path><path class="cls-4" d="M43.48,56.41v5.7H66.31v-6c-21.25,1.73-29.37-6.8-30-7.53A21,21,0,0,0,43.48,56.41Z"></path></g><g id="Layer_2" data-name="Layer 2"><path class="cls-5" d="M43.48,62.11H66.31a0,0,0,0,1,0,0V67a7.24,7.24,0,0,1-7.24,7.24H50.73A7.24,7.24,0,0,1,43.48,67V62.11A0,0,0,0,1,43.48,62.11Z"></path><path class="cls-5" d="M55.7,79.31H54.1a3.5,3.5,0,0,1-3.5-3.49v-1.6h8.59v1.6h0A3.49,3.49,0,0,1,55.7,79.31Z"></path><path class="cls-5" d="M37.08,27.72a20.81,20.81,0,0,0,6.4,28.69v5.7H66.31v-6A20.81,20.81,0,1,0,41.64,22.64"></path><line class="cls-5" x1="51.59" y1="66.75" x2="65.59" y2="66.75"></line><line class="cls-5" x1="91.7" y1="39.04" x2="86.52" y2="39.04"></line><line class="cls-5" x1="84.15" y1="57.27" x2="80.48" y2="53.61"></line><line class="cls-5" x1="80.48" y1="24.46" x2="84.15" y2="20.8"></line><line class="cls-5" x1="18.69" y1="39.04" x2="23.88" y2="39.04"></line><line class="cls-5" x1="26.25" y1="57.27" x2="29.91" y2="53.61"></line><line class="cls-5" x1="29.91" y1="24.46" x2="26.25" y2="20.8"></line><polyline class="cls-5" points="50.9 52.83 47.56 34.45 53.75 42.13 60.73 34.45 58.4 52.83"></polyline></g></svg>